<svg id="Layer_1" data-name="Layer 1" xmlns="http://www.w3.org/2000/svg" viewBox="0 0 256 256"><defs><style>.cls-1{fill:#fff;}.cls-2{fill:#ee3a88;}</style></defs><title>SVG FILE</title><ellipse class="cls-1" cx="127.52" cy="127.7" rx="127.53" ry="128"/><path class="cls-2" d="M90,155H52.27a10.85,10.85,0,0,1-9.4-16.27L93.18,51.46a10.85,10.85,0,0,1,9.4-5.43h37.73a10.86,10.86,0,0,1,9.4,16.28L99.4,149.55A10.85,10.85,0,0,1,90,155Z"/><path class="cls-2" d="M183.87,209.37H83.42A10.86,10.86,0,0,1,74.05,193l19.08-32.68a10.87,10.87,0,0,1,9.38-5.38H202.76a10.85,10.85,0,0,1,9.4,16.28L193.26,204A10.86,10.86,0,0,1,183.87,209.37Z"/></svg>