<svg id="Layer_1" data-name="Layer 1" xmlns="http://www.w3.org/2000/svg" viewBox="0 0 256 256"><defs><style>.cls-1{fill:#ee3a88;}</style></defs><title>SVG FILE</title><path class="cls-1" d="M96.29,114.16H65.87A8.74,8.74,0,0,1,58.3,101L98.86,30.7a8.76,8.76,0,0,1,7.58-4.37h30.41a8.75,8.75,0,0,1,7.58,13.12l-40.56,70.33A8.74,8.74,0,0,1,96.29,114.16Z"/><path class="cls-1" d="M172,158H91a8.75,8.75,0,0,1-7.56-13.16L98.82,118.5a8.74,8.74,0,0,1,7.55-4.34H187.2a8.75,8.75,0,0,1,7.58,13.13l-15.24,26.35A8.75,8.75,0,0,1,172,158Z"/><path class="cls-1" d="M7.44,185.17H9.85A2.16,2.16,0,0,1,12,187.33v26.81a2.17,2.17,0,0,0,2.17,2.17h11.7a2.17,2.17,0,0,1,2.17,2.16v2a2.17,2.17,0,0,1-2.17,2.17H7.44a2.17,2.17,0,0,1-2.17-2.17V187.33A2.17,2.17,0,0,1,7.44,185.17Z"/><path class="cls-1" d="M41.1,185.17H61.72a2.17,2.17,0,0,1,2.17,2.16v1.86a2.17,2.17,0,0,1-2.17,2.16H47.84a2.17,2.17,0,0,0-2.16,2.17v5.14a2.17,2.17,0,0,0,2.16,2.17H60.48A2.17,2.17,0,0,1,62.64,203v1.85A2.17,2.17,0,0,1,60.48,207H47.84a2.16,2.16,0,0,0-2.16,2.16v5a2.17,2.17,0,0,0,2.16,2.17H61.72a2.17,2.17,0,0,1,2.17,2.16v2a2.17,2.17,0,0,1-2.17,2.17H41.1a2.17,2.17,0,0,1-2.17-2.17V187.33A2.17,2.17,0,0,1,41.1,185.17Z"/><path class="cls-1" d="M106.37,187.33v33.18a2.17,2.17,0,0,1-2.17,2.17h-3.34A2.16,2.16,0,0,1,99,221.62L87.94,203.07a2.17,2.17,0,0,0-4,1.11v16.33a2.17,2.17,0,0,1-2.17,2.17H79.6a2.17,2.17,0,0,1-2.17-2.17V187.33a2.17,2.17,0,0,1,2.17-2.16h3.3a2.14,2.14,0,0,1,1.85,1.05l11.12,18.49a2.16,2.16,0,0,0,4-1.12V187.33a2.17,2.17,0,0,1,2.17-2.16h2.14A2.17,2.17,0,0,1,106.37,187.33Z"/><path class="cls-1" d="M121.48,187.33a2.17,2.17,0,0,1,2.17-2.16h8.72c12.77,0,19.51,6.85,19.51,19,0,11.68-7,18.48-19.57,18.48h-8.66a2.17,2.17,0,0,1-2.17-2.17Zm10.17,29.16c8.28,0,13.49-3.21,13.49-12.58,0-8.89-3.64-12.56-12.88-12.56h-1.87a2.17,2.17,0,0,0-2.17,2.17v20.81a2.17,2.17,0,0,0,2.17,2.16Z"/><path class="cls-1" d="M166.5,185.17h20.62a2.17,2.17,0,0,1,2.17,2.16v1.86a2.17,2.17,0,0,1-2.17,2.16H173.24a2.17,2.17,0,0,0-2.16,2.17v5.14a2.17,2.17,0,0,0,2.16,2.17h12.64A2.17,2.17,0,0,1,188,203v1.85a2.17,2.17,0,0,1-2.16,2.17H173.24a2.16,2.16,0,0,0-2.16,2.16v5a2.17,2.17,0,0,0,2.16,2.17h13.88a2.17,2.17,0,0,1,2.17,2.16v2a2.17,2.17,0,0,1-2.17,2.17H166.5a2.17,2.17,0,0,1-2.17-2.17V187.33A2.17,2.17,0,0,1,166.5,185.17Z"/><path class="cls-1" d="M205,185.17h22.27a2.16,2.16,0,0,1,2.16,2.16v1.86a2.16,2.16,0,0,1-2.16,2.16H211.74a2.16,2.16,0,0,0-2.16,2.17v5.14a2.16,2.16,0,0,0,2.16,2.17h13.19A2.17,2.17,0,0,1,227.1,203v1.85a2.17,2.17,0,0,1-2.17,2.17H211.74a2.16,2.16,0,0,0-2.16,2.16v11.33a2.17,2.17,0,0,1-2.17,2.17H205a2.17,2.17,0,0,1-2.17-2.17V187.33A2.17,2.17,0,0,1,205,185.17Z"/><path class="cls-1" d="M243.23,185.17h2.41a2.17,2.17,0,0,1,2.17,2.16v33.18a2.17,2.17,0,0,1-2.17,2.17h-2.41a2.17,2.17,0,0,1-2.17-2.17V187.33A2.17,2.17,0,0,1,243.23,185.17Z"/></svg>