<svg id="Layer_1" data-name="Layer 1" xmlns="http://www.w3.org/2000/svg" viewBox="0 0 256 256"><defs><style>.cls-1{fill:#ee3a88;}</style></defs><title>SVG FILE</title><path class="cls-1" d="M75.45,161.63H23.65a14.9,14.9,0,0,1-12.91-22.34L79.82,19.5a14.9,14.9,0,0,1,12.91-7.45h51.79a14.9,14.9,0,0,1,12.91,22.34L88.36,154.17A14.91,14.91,0,0,1,75.45,161.63Z"/><path class="cls-1" d="M204.32,236.3H66.42a14.9,14.9,0,0,1-12.87-22.41L79.75,169a14.9,14.9,0,0,1,12.87-7.38H230.27A14.9,14.9,0,0,1,243.17,184l-25.95,44.88A14.91,14.91,0,0,1,204.32,236.3Z"/></svg>